<mxfile host="app.diagrams.net" modified="2022-12-02T03:56:35.531Z" agent="5.0 (Windows NT 10.0; Win64; x64) AppleWebKit/537.36 (KHTML, like Gecko) Chrome/103.0.0.0 Safari/537.36" etag="26x6mc3rtwcuDbjB13d1" version="20.6.0" type="github">
  <diagram id="ls8e80-gLTeel5YpICp5" name="第 1 页">
    <mxGraphModel dx="2062" dy="1146" grid="1" gridSize="10" guides="1" tooltips="1" connect="1" arrows="1" fold="1" page="1" pageScale="1" pageWidth="827" pageHeight="1169" math="0" shadow="0">
      <root>
        <mxCell id="0" />
        <mxCell id="1" parent="0" />
        <mxCell id="QGSotT8n_K5I-33iUHCd-1" value="" style="shape=image;html=1;verticalAlign=top;verticalLabelPosition=bottom;labelBackgroundColor=#ffffff;imageAspect=0;aspect=fixed;image=https://cdn1.iconfinder.com/data/icons/dompicon-glyph-fitness-diet/256/exercise-cardio-running-treadmill-fitness-diet-128.png;fontColor=#000000;" vertex="1" parent="1">
          <mxGeometry x="230" y="913.5" width="98" height="98" as="geometry" />
        </mxCell>
        <mxCell id="QGSotT8n_K5I-33iUHCd-4" value="" style="points=[[0.005,0.09,0],[0.08,0,0],[0.76,0.25,0],[1,0.92,0],[0.91,0.995,0],[0.57,0.995,0],[0.045,0.955,0],[0.005,0.43,0]];verticalLabelPosition=bottom;sketch=0;html=1;verticalAlign=top;aspect=fixed;align=center;pointerEvents=1;shape=mxgraph.cisco19.3g_4g_indicator;fillColor=#005073;strokeColor=none;" vertex="1" parent="1">
          <mxGeometry x="370" y="570" width="50" height="50" as="geometry" />
        </mxCell>
        <mxCell id="QGSotT8n_K5I-33iUHCd-5" value="" style="html=1;verticalLabelPosition=bottom;align=center;labelBackgroundColor=#ffffff;verticalAlign=top;strokeWidth=2;strokeColor=#0080F0;shadow=0;dashed=0;shape=mxgraph.ios7.icons.bluetooth;pointerEvents=1" vertex="1" parent="1">
          <mxGeometry x="215" y="850" width="15" height="28.799999999999997" as="geometry" />
        </mxCell>
        <mxCell id="QGSotT8n_K5I-33iUHCd-15" value="" style="shape=mxgraph.cisco.misc.breakout_box;html=1;pointerEvents=1;dashed=0;fillColor=#036897;strokeColor=#ffffff;strokeWidth=2;verticalLabelPosition=bottom;verticalAlign=top;align=center;outlineConnect=0;" vertex="1" parent="1">
          <mxGeometry x="110" y="920" width="80" height="91.5" as="geometry" />
        </mxCell>
        <mxCell id="QGSotT8n_K5I-33iUHCd-17" value="" style="verticalLabelPosition=bottom;html=1;verticalAlign=top;align=center;strokeColor=none;fillColor=#00BEF2;shape=mxgraph.azure.mobile;pointerEvents=1;fontColor=#000000;" vertex="1" parent="1">
          <mxGeometry x="205" y="740" width="35" height="50" as="geometry" />
        </mxCell>
        <mxCell id="QGSotT8n_K5I-33iUHCd-18" value="" style="shape=image;html=1;verticalAlign=top;verticalLabelPosition=bottom;labelBackgroundColor=#ffffff;imageAspect=0;aspect=fixed;image=https://cdn1.iconfinder.com/data/icons/dompicon-glyph-fitness-diet/256/exercise-cardio-running-treadmill-fitness-diet-128.png;fontColor=#000000;" vertex="1" parent="1">
          <mxGeometry x="550" y="913.5" width="98" height="98" as="geometry" />
        </mxCell>
        <mxCell id="QGSotT8n_K5I-33iUHCd-19" value="" style="shape=mxgraph.cisco.misc.breakout_box;html=1;pointerEvents=1;dashed=0;fillColor=#036897;strokeColor=#ffffff;strokeWidth=2;verticalLabelPosition=bottom;verticalAlign=top;align=center;outlineConnect=0;" vertex="1" parent="1">
          <mxGeometry x="430" y="920" width="80" height="91.5" as="geometry" />
        </mxCell>
      </root>
    </mxGraphModel>
  </diagram>
</mxfile>
